<svg id="Layer_1" data-name="Layer 1" xmlns="http://www.w3.org/2000/svg" viewBox="0 0 214.8 213.08"><defs><style>.cls-1{fill:#facc14;}.cls-2{fill:#0994bd;}</style></defs><rect class="cls-1" x="138.08" y="60.36" width="10.23" height="10.23" rx="4.42"/><rect class="cls-1" x="138.08" y="80.81" width="10.23" height="10.23" rx="4.42"/><path class="cls-1" d="M138.48,159.93H145a4.42,4.42,0,0,0,4.43-4.42V129.25a4.41,4.41,0,0,1,1.88-3.62l49.28-34.5a4.44,4.44,0,0,1,5.07,0l49.28,34.5a4.42,4.42,0,0,1,1.89,3.62v75.61a4.42,4.42,0,0,0,4.42,4.43h6.5a4.42,4.42,0,0,0,4.42-4.43V121.55a4.43,4.43,0,0,0-1.85-3.6L205.67,71.76a4.43,4.43,0,0,0-5.15,0L135.9,118a4.43,4.43,0,0,0-1.85,3.6v34A4.42,4.42,0,0,0,138.48,159.93Z" transform="translate(-70.13 -70.94)"/><rect class="cls-1" x="117.63" y="60.36" width="10.23" height="10.23" rx="4.42"/><path class="cls-2" d="M277.76,232.3a23.44,23.44,0,0,0-17.9-7.67H234.93a4.44,4.44,0,0,1-4.4-4q-.75-7.83-4.55-12.45a27,27,0,0,0-11.63-8.31l-64.46-24.26a4.3,4.3,0,0,0-1.55-.28H74.55a4.42,4.42,0,0,0-4.42,4.42v91.9A4.42,4.42,0,0,0,74.55,276h46.13a4.42,4.42,0,0,0,4.42-4.43v-4.28a4.43,4.43,0,0,1,5.64-4.26l72.63,20.79a4.46,4.46,0,0,0,2.51,0l75.91-23.21a4.43,4.43,0,0,0,3.13-4.23V253Q284.92,240,277.76,232.3Zm-168.25,24a4.42,4.42,0,0,1-4.43,4.42H89.89a4.42,4.42,0,0,1-4.42-4.42V195a4.42,4.42,0,0,1,4.42-4.42h15.19a4.42,4.42,0,0,1,4.43,4.42Zm154.7-6.37L204.87,268a4.36,4.36,0,0,1-2.53,0l-74.06-21.71A4.43,4.43,0,0,1,125.1,242V195a4.42,4.42,0,0,1,4.43-4.42h16.24a4.41,4.41,0,0,1,1.57.29l61.89,23.49a7.43,7.43,0,0,1,4,4.22l0,.06a4.41,4.41,0,0,1-4.25,5.91,118,118,0,0,1-12.91-.73,70.83,70.83,0,0,1-12.14-2.81l-14.65-4.82a4.42,4.42,0,0,0-5.52,2.63l-2.45,6.48a4.41,4.41,0,0,0,2.83,5.79l16.21,5a89.57,89.57,0,0,0,12.4,2.82,92.08,92.08,0,0,0,14.19,1h52.93a8.5,8.5,0,0,1,5.37,1.79,7,7,0,0,1,1.16,1.15A4.42,4.42,0,0,1,264.21,249.89Z" transform="translate(-70.13 -70.94)"/><rect class="cls-1" x="117.63" y="80.81" width="10.23" height="10.23" rx="4.42"/></svg>